<svg width="28" height="28" viewBox="0 0 28 28" fill="none" xmlns="http://www.w3.org/2000/svg">
<path fill-rule="evenodd" clip-rule="evenodd" d="M1.35902 8.43028C0.666748 9.69499 0.666748 11.2206 0.666748 14.2719V16.2999C0.666748 21.5011 0.666748 24.1017 2.22885 25.7175C3.79094 27.3333 6.3051 27.3333 11.3334 27.3333H16.6667C21.6951 27.3333 24.2092 27.3333 25.7713 25.7175C27.3334 24.1017 27.3334 21.5011 27.3334 16.2999V14.2719C27.3334 11.2206 27.3334 9.69499 26.6411 8.43028C25.9489 7.16557 24.6842 6.38064 22.1547 4.81079L19.488 3.15578C16.8142 1.49635 15.4773 0.666626 14.0001 0.666626C12.5228 0.666626 11.1859 1.49635 8.51212 3.15579L5.84546 4.81079C3.31601 6.38064 2.05128 7.16557 1.35902 8.43028ZM10.0001 21C9.4478 21 9.00008 21.4477 9.00008 22C9.00008 22.5522 9.4478 23 10.0001 23H18.0001C18.5524 23 19.0001 22.5522 19.0001 22C19.0001 21.4477 18.5524 21 18.0001 21H10.0001Z" fill="#A4A9AC"/>
</svg>
