<svg width="28" height="28" viewBox="0 0 28 28" fill="none" xmlns="http://www.w3.org/2000/svg">
<path fill-rule="evenodd" clip-rule="evenodd" d="M14.0001 27.3333C21.3639 27.3333 27.3334 21.3638 27.3334 14C27.3334 6.63616 21.3639 0.666626 14.0001 0.666626C6.63628 0.666626 0.666748 6.63616 0.666748 14C0.666748 16.1329 1.16757 18.1488 2.05803 19.9366C2.29466 20.4117 2.37343 20.9547 2.23624 21.4674L1.4421 24.4355C1.09735 25.7239 2.2761 26.9027 3.56454 26.5579L6.5326 25.7638C7.04532 25.6266 7.58836 25.7054 8.06345 25.942C9.85123 26.8325 11.8672 27.3333 14.0001 27.3333ZM8.66675 15.6666C8.11446 15.6666 7.66675 16.1143 7.66675 16.6666C7.66675 17.2189 8.11446 17.6666 8.66675 17.6666H16.0001C16.5524 17.6666 17.0001 17.2189 17.0001 16.6666C17.0001 16.1143 16.5524 15.6666 16.0001 15.6666H8.66675ZM7.66675 12C7.66675 11.4477 8.11446 11 8.66675 11H19.3334C19.8857 11 20.3334 11.4477 20.3334 12C20.3334 12.5522 19.8857 13 19.3334 13H8.66675C8.11446 13 7.66675 12.5522 7.66675 12Z" fill="#A4A9AC"/>
</svg>
