<svg width="42" height="42" viewBox="0 0 42 42" fill="none" xmlns="http://www.w3.org/2000/svg">
<path d="M41 21.019C41.0062 25.3004 39.6348 29.4698 37.0891 32.9088C37.0196 33.0058 36.947 33.0997 36.8714 33.1936C36.7957 33.2876 36.7836 33.3088 36.7413 33.3603C36.5931 33.5512 36.4388 33.739 36.2846 33.9239C36.1303 34.1087 35.9821 34.2875 35.8127 34.4632C35.7069 34.5814 35.601 34.6995 35.4891 34.8147L35.1533 35.1571L34.8116 35.4934L34.6392 35.651C32.4934 37.6486 29.935 39.1487 27.1456 40.0448C24.3563 40.9409 21.4042 41.2111 18.4989 40.8361C15.5936 40.4612 12.8063 39.4503 10.3347 37.8753C7.86306 36.3002 5.76777 34.1996 4.19745 31.7224C2.62712 29.2452 1.62025 26.4521 1.24828 23.5414C0.8763 20.6307 1.14833 17.6736 2.04507 14.8801C2.94181 12.0865 4.44128 9.52479 6.43709 7.37681C8.4329 5.22883 10.8761 3.54717 13.5935 2.45115V2.45115C15.9574 1.4976 18.4828 1.00994 21.0311 1.01493C21.2852 1.01493 21.5363 1.01493 21.7903 1.03311C23.035 1.07645 24.2727 1.23879 25.4865 1.51791V1.51791C27.0944 1.88625 28.6508 2.4521 30.1203 3.2026V3.2026C33.3966 4.87957 36.1465 7.43093 38.0664 10.575C39.9863 13.719 41.0016 17.3334 41 21.019V21.019Z" stroke="white" stroke-width="1.6" stroke-miterlimit="10"/>
<path d="M31.1365 8.00519C31.137 8.00822 31.1367 8.01131 31.1359 8.01424C31.135 8.01718 31.1335 8.01989 31.1315 8.02219C31.1295 8.02449 31.127 8.02633 31.1242 8.02758C31.1214 8.02883 31.1184 8.02946 31.1153 8.02943C30.9762 8.02943 30.2321 8.02943 30.0718 7.67492C29.8961 7.33123 29.6279 7.04365 29.2975 6.8447C28.9709 6.62654 28.5111 5.13274 28.1663 5.83268C28.1084 5.95499 28.0915 6.0928 28.1182 6.2255C28.1449 6.35821 28.2138 6.4787 28.3145 6.56897C28.3344 6.58215 28.3512 6.59962 28.3635 6.62011C28.3758 6.64061 28.3834 6.6636 28.3858 6.68742C28.3881 6.71123 28.3851 6.73526 28.3769 6.75776C28.3688 6.78025 28.3557 6.80064 28.3387 6.81743C28.1814 7.02953 27.9848 7.02347 27.643 7.12043C27.3012 7.21739 27.0381 8.74452 27.3405 8.67786C27.643 8.6112 28.0272 8.33243 28.4506 8.47788C28.8741 8.62332 30.5679 9.65352 29.9811 10.0929C29.8783 10.1717 29.11 9.38688 28.862 9.3081C28.6926 9.25053 29.0707 9.84441 29.1281 10.0292C29.3261 10.5805 29.3817 11.1729 29.2897 11.7514C29.1977 12.3299 28.9611 12.8757 28.6018 13.338C28.381 13.6592 29.3731 14.0046 29.3368 14.45C29.3005 14.8954 29.0344 15.4166 28.7833 15.3287C28.5323 15.2409 28.7591 14.55 28.4052 14.3591C28.0513 14.1682 27.4162 13.4168 27.1379 13.841C26.8596 14.2652 26.5148 15.2833 26.9262 15.5075C27.3375 15.7317 27.9788 15.7408 28.1149 16.7195C28.251 17.6982 27.1802 20.6161 25.6951 21.0282C24.21 21.4403 24.328 21.8675 24.8301 22.322C25.3322 22.7765 26.2607 24.14 25.1628 24.9126C24.0648 25.6853 24.1162 24.6096 23.3873 24.3582C22.6584 24.1067 22.5797 25.1732 23.0546 25.6883C23.5295 26.2034 24.4792 26.7004 24.455 27.3033C24.4308 27.9063 24.1525 27.6639 23.7351 27.4882C23.3177 27.3124 23.3782 26.764 22.7793 26.364C22.1805 25.9641 22.4557 25.0278 22.0806 24.3097C21.7056 23.5916 21.0402 23.7734 20.5683 23.3067C20.0965 22.8401 20.4685 22.2462 19.9452 21.6887C19.422 21.1312 18.327 20.7464 17.8098 21.6554C17.3839 22.4193 16.7641 23.0569 16.0131 23.5037C15.4385 23.837 16.24 24.7157 15.75 25.3762C15.5548 25.6542 15.3059 25.8902 15.018 26.0701C14.9963 26.0821 14.9723 26.0893 14.9476 26.0912C14.9228 26.0931 14.898 26.0895 14.8747 26.0809C14.8515 26.0723 14.8303 26.0587 14.8128 26.0412C14.7952 26.0236 14.7817 26.0025 14.773 25.9792C14.4948 25.2702 13.4664 22.5523 13.5632 21.5433C13.6751 20.3767 10.8046 20.1919 9.8307 19.5495C8.85676 18.9072 8.13084 16.8437 7.82534 17.0831C7.51985 17.3225 7.5501 19.7525 8.2004 19.7192C8.55367 19.6941 8.90869 19.7166 9.25602 19.7859V19.7859C9.31046 19.8586 10.0727 20.8676 9.28626 21.6039C8.49985 22.3402 6.27671 23.1734 5.90467 22.8674C5.53264 22.5614 5.699 17.4134 5.25437 17.0134C4.80974 16.6134 4.91258 19.8556 4.91258 20.5767C4.91258 21.2978 5.09406 23.0734 5.42678 23.2643C5.75949 23.4552 7.09942 24.1582 7.30208 23.8128C7.50473 23.4673 7.2688 26.5398 5.59616 27.576C3.92351 28.6123 6.07406 31.9241 6.31301 32.5392C6.49751 33.0149 6.66084 34.3572 6.76973 34.945C6.78486 35.0268 6.76973 35.0177 6.70621 34.945C4.86128 33.0446 3.41192 30.7957 2.44243 28.3291C1.47294 25.8625 1.00267 23.2275 1.05896 20.5771C1.11525 17.9268 1.69698 15.3142 2.77032 12.8911C3.84366 10.4681 5.38719 8.28299 7.31115 6.46292V6.46292C7.36862 6.44171 12.7556 4.52674 13.1972 5.04487C13.6388 5.56301 12.3472 6.9356 13.1972 6.74168C14.0471 6.54776 15.5413 5.95994 15.9194 6.28415C16.2975 6.60836 16.7028 6.08417 17.4317 5.85995C18.1607 5.63573 19.8515 4.97821 19.9089 4.95094C20.8823 5.0855 21.8695 5.0855 22.8429 4.95094C24.2282 4.72672 26.2668 3.21778 27.2044 3.52987C28.1421 3.84196 28.7712 4.08133 29.0374 4.61158C29.3036 5.14183 29.0555 5.49635 29.3187 5.78117C29.5818 6.06599 29.9871 6.33869 30.2745 6.64775C30.5618 6.95681 31.0549 7.64462 31.1365 8.00519Z" stroke="white" stroke-width="1.6" stroke-miterlimit="10"/>
<path d="M30.1596 10.7807C30.1596 10.7807 30.5316 11.1443 30.4197 11.3292C30.3078 11.514 30.5437 12.1018 30.6556 12.2018C30.7655 12.3452 30.836 12.5148 30.8604 12.6939C30.8848 12.8729 30.8622 13.0553 30.7948 13.2229C30.5951 13.6471 30.6072 14.0077 30.3592 14.1925C30.1112 14.3774 29.6242 15.0409 29.8359 15.353C30.0477 15.6651 30.2413 16.1499 30.332 16.0257C30.4227 15.9015 30.2715 15.3651 30.4953 14.9925C30.7192 14.6198 31.2031 14.4804 31.5025 14.0562C31.6351 13.8971 31.7176 13.7023 31.7397 13.4963C31.7617 13.2903 31.7224 13.0823 31.6266 12.8987C31.4511 12.5109 30.9883 11.8776 30.7675 11.8655C30.5467 11.8534 30.5649 11.714 30.7675 11.5625C30.9702 11.411 31.1033 11.5867 31.191 11.214C31.2787 10.8413 31.1547 10.9383 31.067 10.6656C30.9793 10.3929 30.7948 10.7413 30.5316 10.6656C30.2685 10.5898 30.1354 10.4686 30.1596 10.7807Z" stroke="white" stroke-width="1.6" stroke-miterlimit="10"/>
<path d="M26.3909 27.2459C26.2396 27.5701 26.0672 28.0883 26.3909 28.4367C26.7145 28.7852 28.2722 29.3245 28.6412 28.9336C29.0103 28.5428 28.9861 27.4186 29.3339 27.1156C29.6817 26.8126 28.9649 26.2945 29.0193 25.9006C29.0738 25.5067 28.7622 24.8613 28.372 25.1431C27.9819 25.4249 27.7429 26.4854 27.3104 26.7248C26.8779 26.9641 26.3909 27.2459 26.3909 27.2459Z" stroke="white" stroke-width="1.6" stroke-miterlimit="10"/>
<path d="M33.1599 26.2428C33.414 25.7004 34.019 26.6882 34.3698 26.2428C34.9566 25.5277 36.72 25.5489 37.1162 26.1004C37.4187 26.5125 37.3219 27.0094 37.703 27.2033C38.0841 27.3972 38.2202 27.6184 37.703 27.7215C37.1858 27.8245 36.9105 26.7912 36.5294 27.3094C36.412 27.5072 36.2456 27.6713 36.0464 27.7859C35.8472 27.9006 35.6219 27.9618 35.3922 27.9639C34.8749 28.0335 35.3922 27.4821 35.1169 27.273C34.8417 27.0639 33.8677 27.376 33.6953 27.067C33.5229 26.7579 32.8726 26.8609 33.1599 26.2428Z" stroke="white" stroke-width="1.6" stroke-miterlimit="10"/>
<path d="M37.0862 32.921C37.0862 32.921 37.5822 31.709 37.3886 31.103C37.195 30.497 36.1788 29.3577 36.1788 28.7577C36.1788 28.1578 35.8581 28.6093 35.8097 29.4183C35.7613 30.2273 35.7613 30.7606 35.3258 30.703C34.8902 30.6454 34.7209 30.1606 34.5999 29.7576C34.4789 29.3547 33.39 29.0304 33.145 29.7576C32.9 30.4849 31.1911 32.3059 30.2383 32.9089C29.2855 33.5118 27.7702 33.5755 28.0121 34.8208C28.2541 36.0661 28.5445 36.763 28.4144 36.86C28.2844 36.957 28.3327 37.163 29.1887 36.6964C30.0447 36.2297 32.7367 34.5935 33.0785 35.0632C33.2528 35.3014 33.4928 35.4834 33.769 35.5868C34.0452 35.6902 34.3456 35.7104 34.6331 35.645C35.5323 34.8141 36.3534 33.9023 37.0862 32.921Z" stroke="white" stroke-width="1.6" stroke-miterlimit="10"/>
<path d="M7.32619 32.3059C7.32619 32.3059 7.93113 31.9453 7.93113 31.6605C7.93113 31.3757 8.06724 31.5757 8.31526 32.0453C8.56329 32.515 8.45137 32.6877 8.57236 33.2816C8.69335 33.8754 9.0926 34.7057 8.95649 34.7663C8.82038 34.8269 7.93113 34.3693 7.78292 33.7906C7.63471 33.2119 7.69823 33.224 7.40181 32.8422C7.10539 32.4604 7.15681 32.4453 7.32619 32.3059Z" stroke="white" stroke-width="1.6" stroke-miterlimit="10"/>
<path d="M15.9739 25.9914C15.9739 26.355 15.8166 27.2034 16.231 26.9671C16.6453 26.7307 16.5334 26.6641 16.4487 26.3853C16.3395 26.1448 16.2142 25.912 16.0737 25.6884C16.0132 25.552 15.986 25.7369 15.9739 25.9914Z" stroke="white" stroke-width="1.6" stroke-miterlimit="10"/>
<path d="M20.771 27.1519C20.771 27.1519 22.5011 28.6669 22.5162 28.9184C22.5314 29.1699 24.573 30.6001 24.8634 30.4971C25.1538 30.394 25.1658 29.8093 25.0328 29.5366C24.8997 29.2639 23.5204 28.7457 23.3057 28.5579C22.9968 28.2859 22.6693 28.0358 22.3257 27.8094C21.9839 27.6095 20.9222 26.7944 20.771 27.1519Z" stroke="white" stroke-width="1.6" stroke-miterlimit="10"/>
<path d="M25.7495 30.4091C25.7102 30.3849 25.9159 30.1819 26.052 30.0152C26.1881 29.8486 26.9594 30.1364 27.4918 30.091C28.0241 30.0455 29.9115 29.8213 30.214 29.7607C30.5164 29.7001 30.8612 29.5819 30.9369 29.7607C31.0125 29.9395 29.8691 30.5758 29.1221 30.5C28.375 30.4243 26.2063 30.6637 25.7495 30.4091Z" stroke="white" stroke-width="1.6" stroke-miterlimit="10"/>
<path d="M21.7903 1.03322C21.7903 1.09685 20.6741 1.41803 20.1811 1.58771C19.5459 1.8089 18.7232 1.7786 18.4692 2.06645C18.2151 2.35431 17.1685 2.63913 16.5334 2.60883C15.8982 2.57853 13.8354 3.11484 13.3907 3.17544C12.9461 3.23604 13.542 2.52096 13.5994 2.45127C15.9615 1.49848 18.4847 1.01083 21.0311 1.01504C21.2851 1.01504 21.5362 1.01807 21.7903 1.03322Z" stroke="white" stroke-width="1.6" stroke-miterlimit="10"/>
<path d="M30.0658 3.26626C29.9751 3.48442 29.3883 3.45715 29.0374 3.48139C28.6866 3.50563 27.8941 2.57239 27.7157 2.66632C27.5372 2.76025 26.8536 2.6845 26.4513 2.66632C26.1035 2.66026 25.5984 1.81186 25.4592 1.56642C25.4567 1.56152 25.4555 1.55607 25.4556 1.55056C25.4557 1.54505 25.4571 1.53965 25.4598 1.53485C25.4625 1.53005 25.4664 1.52599 25.471 1.52304C25.4757 1.52009 25.481 1.51834 25.4865 1.51794V1.51794C27.141 1.85125 29.2219 2.64208 30.0598 3.26626H30.0658Z" stroke="white" stroke-width="1.6" stroke-miterlimit="10"/>
<path d="M5.52661 27.6367L6.45519 26.7277C6.51568 26.7913 5.76859 27.4003 5.79883 27.4306L6.27068 26.9731" stroke="white" stroke-width="1.6" stroke-linecap="round" stroke-linejoin="round"/>
<path d="M16.0132 23.4977C16.0979 23.5825 17.5255 21.916 17.583 21.9827C17.6405 22.0493 16.3005 23.1068 16.4155 23.225C16.7326 22.9498 17.0355 22.6586 17.3229 22.3523C17.3229 22.3523 16.5304 23.0583 16.5727 23.1038C16.5727 23.1038 17.1595 22.4463 17.2019 22.4978" stroke="white" stroke-width="1.6" stroke-linecap="round" stroke-linejoin="round"/>
</svg>
